<svg width="136" height="136" viewBox="0 0 136 136" fill="none" xmlns="http://www.w3.org/2000/svg">
<g clip-path="url(#clip0_1174_20139)">
<path d="M69.7731 8.92811C69.2404 9.00744 68.4017 9.13211 67.9031 9.18878C67.4044 9.24544 66.3844 9.47211 65.6364 9.68744C64.8884 9.90278 64.0044 10.1294 63.6871 10.2088C63.3584 10.2881 62.5084 10.5714 61.7944 10.8548C57.6917 12.4301 54.5524 14.9234 50.6877 19.6834C50.0757 20.4314 49.4637 21.1681 49.3277 21.3268C48.6477 22.0861 46.4037 25.3388 45.7124 26.5854C45.1457 27.5941 44.0464 29.7474 44.0464 29.8494C44.0464 29.8948 43.8991 30.2461 43.7177 30.6428C42.7884 32.6601 41.5984 36.2414 40.7711 39.5168C40.5217 40.5141 40.1251 42.0441 39.9097 42.9168C39.4337 44.7641 38.6631 48.6288 38.4931 49.9434C38.1417 52.8108 37.8811 58.7268 38.0397 60.4494C38.1871 62.1721 38.4591 63.9288 38.6517 64.4614C39.0371 65.5041 39.7964 66.7054 40.3857 67.1814C40.9751 67.6688 41.2584 67.7141 41.6437 67.4194C41.8364 67.2608 42.4597 65.9688 42.4597 65.7194C42.4597 65.6174 42.5051 65.5154 42.5617 65.4701C42.8224 65.3114 43.0491 64.0421 43.1397 62.0928C43.2077 60.9594 43.3437 59.4974 43.4684 58.8401C43.5931 58.1828 43.7744 57.1401 43.8764 56.5168C44.5791 52.2101 45.3384 49.0141 46.5397 45.2968C46.7211 44.7301 47.0724 43.5628 47.3331 42.6901C49.6224 35.0288 50.8124 32.2974 53.8837 27.6621C58.2244 21.1001 61.6017 18.0401 66.2257 16.5101C68.0051 15.9208 68.5264 15.8074 70.2264 15.6488C71.5297 15.5354 71.9831 15.5354 73.3091 15.6941C75.1451 15.9094 77.0944 16.4988 78.6017 17.3261C79.8597 17.9948 80.3697 18.4254 81.5371 19.7968C82.6704 21.1341 83.1917 22.1768 83.9737 24.6134C84.8237 27.2881 85.1864 29.1808 85.7531 33.7934C86.1951 37.4994 86.3764 40.0154 86.7957 48.1301C86.9657 51.5414 86.9657 63.8834 86.7957 67.5668C86.2631 78.8434 86.1044 81.1441 85.2997 88.8734C84.9031 92.6248 83.8037 98.6314 82.9537 101.567C81.8997 105.261 80.6191 108.038 79.0551 110.067C78.0577 111.359 76.4937 112.696 75.0657 113.467C74.1477 113.977 73.8984 113.999 72.5497 113.761C71.4051 113.546 70.6684 113.297 69.9431 112.855C67.2797 111.245 64.4691 108.106 62.7804 104.842C61.7151 102.802 60.2871 98.7221 60.0264 96.9768C59.9697 96.6028 59.7997 95.5601 59.6411 94.6534C59.0857 91.3668 58.8931 88.0234 58.8137 80.2034C58.7571 74.3554 58.8364 69.7881 59.1197 63.4868C59.3351 58.6701 60.1624 52.3574 61.1144 48.3001C61.8851 45.0134 63.3924 41.3641 64.5484 39.9814C65.6137 38.7008 66.1917 38.5308 67.6197 39.0748C68.5944 39.4488 69.2291 40.0041 70.2491 41.3868C71.0311 42.4634 71.1217 42.6334 71.6771 44.2314C72.7991 47.4728 73.2411 51.6774 73.1391 58.0468C73.0824 61.8094 72.9917 63.0221 72.4817 66.7734C72.0057 70.3774 70.7024 76.4634 69.8297 79.2174C69.5237 80.1808 69.2744 81.5181 69.1497 82.9234C69.0477 84.0114 69.0137 84.1134 68.6964 84.1134C68.2431 84.1134 68.0731 84.2381 68.0731 84.5554C68.0731 85.0201 68.5944 86.7201 68.8437 87.0601C68.9684 87.2188 69.1951 87.6154 69.3537 87.9328C70.0451 89.2814 71.8697 90.5734 72.8671 90.4148C73.6037 90.2901 74.6804 89.7234 75.2811 89.1228C75.8704 88.5448 76.6977 87.2641 76.9584 86.5274C77.0491 86.2894 77.2984 85.7908 77.5251 85.4281C77.7517 85.0541 77.9331 84.6801 77.9331 84.6008C77.9331 84.5101 78.1144 83.9774 78.3411 83.3994C79.2137 81.1441 80.0977 76.9054 80.5057 73.0634C80.7891 70.4454 80.7891 62.2401 80.5057 59.2934C80.1431 55.3721 79.6331 51.7001 79.2137 49.8301C79.0664 49.1388 78.8964 48.3001 78.8397 47.9714C78.5564 46.3394 77.1737 42.4294 76.2671 40.7181C75.6891 39.6301 75.5644 39.4148 74.5104 37.8168C73.5924 36.4114 73.5017 36.2981 72.0397 34.8248C70.5437 33.3061 70.5437 33.3174 68.9797 32.5128C67.8917 31.9461 67.5517 31.8328 66.9397 31.7874C66.1351 31.7194 64.7977 31.8894 63.9931 32.1501C63.7097 32.2408 63.0751 32.4221 62.5877 32.5694C61.9644 32.7394 61.4997 32.9661 61.0577 33.2948C60.1397 33.9861 58.9497 35.6294 57.8731 37.6921C57.6124 38.1794 57.3631 38.6668 57.3064 38.7688C56.2751 40.6954 54.8471 44.5374 53.9291 47.8468C52.9204 51.4621 51.7757 57.3781 51.5717 59.9734C51.5377 60.4381 51.4131 61.7188 51.2884 62.8068C50.8237 67.1474 50.6991 69.5614 50.6877 74.2534C50.6764 78.8774 50.7784 81.3594 51.1977 86.7768C51.3224 88.3974 51.4697 90.4374 51.5264 91.2988C51.6397 92.8174 52.0931 96.3194 52.3197 97.3394C52.3877 97.6114 52.4897 98.2008 52.5464 98.6428C52.9884 101.793 55.2437 108.174 56.7964 110.69C56.9891 110.996 57.3404 111.642 57.5784 112.107C58.1677 113.229 59.2104 114.94 59.6977 115.575C61.4884 117.909 62.5537 119.043 63.9477 120.131C64.4351 120.516 65.1037 121.037 65.4097 121.287C67.0191 122.59 69.3764 123.746 71.1444 124.12C73.0144 124.517 75.7344 124.347 77.6497 123.723C78.6697 123.395 81.1517 122.103 81.8997 121.513C83.6224 120.165 85.4924 118.034 86.5011 116.3C87.1924 115.11 89.0397 111.427 89.3457 110.633C89.6857 109.738 90.5584 107.301 90.8531 106.44C91.8277 103.527 93.2331 97.2261 93.7431 93.4634C94.4797 88.0688 94.8537 83.2861 95.1597 75.1601C95.3977 68.9721 95.1937 62.1721 94.5251 53.5701C94.3777 51.6321 94.1737 49.0368 94.0831 47.7901C92.7344 30.1894 91.5671 24.2961 88.2237 18.2781C87.8724 17.6548 86.6711 15.8754 86.2177 15.3201C85.2317 14.1074 83.7471 12.7701 82.4891 11.9654C81.4464 11.2854 79.3611 10.2428 78.1031 9.76678C76.9584 9.33611 76.6071 9.24544 74.4764 8.90544C73.2184 8.71278 71.0537 8.71278 69.7731 8.92811Z" fill="black"/>
</g>
<defs>
<clipPath id="clip0_1174_20139">
<rect width="136" height="136" fill="white"/>
</clipPath>
</defs>
</svg>
